<svg width="800" height="600" xmlns="http://www.w3.org/2000/svg">
 <!-- Created by @lincolngyn -->
 <g>
  <title>background</title>
  <rect x="-1" y="-1" width="802" height="602" id="canvas_background" fill="none"/>
  <g id="canvasGrid" display="none">
   <rect id="svg_1" width="100%" height="100%" x="0" y="0" stroke-width="0" fill="url(#gridpattern)"/>
  </g>
 </g>
 <g>
  <title>Layer 1</title>
  <defs>
   <style>.cls-1{fill:#000000;}</style>
  </defs>
  <g id="svg_8">
   <path stroke="null" class="cls-1" d="m601.31793,271.89757a3.49408,3.49408 0 0 0 -0.86218,-0.36302l-38.88865,-22.46194l0,-101.10141l-115.48612,0l0,-22.3258a4.53777,4.53777 0 0 0 -2.26888,-3.90248a5.4907,5.4907 0 0 0 -0.90755,-0.4084l-40.70375,-23.59638a4.53777,4.53777 0 0 0 -4.53777,0l-41.20291,23.91402a4.53777,4.53777 0 0 0 -2.26888,3.94786l0,0l0,22.3258l-115.75839,0l0,101.14678l-38.88865,22.46194a3.49408,3.49408 0 0 0 -0.86218,0.36302a4.53777,4.53777 0 0 0 -2.26888,3.90248l0,47.60116a4.53777,4.53777 0 0 0 2.26888,3.94786l39.75082,22.96109l0,109.17863l115.66763,0l0,14.88387a4.53777,4.53777 0 0 0 2.26888,3.90248l40.83989,23.68713l0.4084,0.27227a4.53777,4.53777 0 0 0 2.26888,0.63529l0,0a4.53777,4.53777 0 0 0 2.26888,-0.63529l0.36302,-0.27227l40.83989,-23.68713a4.53777,4.53777 0 0 0 2.26888,-3.90248l0,-14.88387l115.9399,0l0,-109.17863l39.75082,-22.96109a4.53777,4.53777 0 0 0 2.26888,-3.94786l0,-47.60116a4.53777,4.53777 0 0 0 -2.26888,-3.90248zm-201.38602,-165.08389l32.39964,18.74097l-32.12738,18.55946l-32.4904,-18.51408l32.21813,-18.78635zm37.07354,26.50055l0,37.1643l-32.26351,18.60484l0,-36.89203l32.26351,-18.8771zm-73.82944,0.18151l32.35427,18.69559l0,37.11892l-32.35427,-18.65021l0,-37.1643zm-125.42383,205.92378l-32.26351,-18.60484l0,-37.02816l32.26351,18.60484l0,37.02816zm-27.63499,-63.52871l32.44502,-18.69559l32.12738,18.55946l-32.39964,18.69559l-32.17275,-18.55946zm36.84665,26.40979l32.26351,-18.51408l0,37.11892l-32.26351,18.60484l0,-37.20967zm148.56643,187.95423l-32.35427,-18.65021l0,-37.11892l32.26351,18.65021l0.09076,37.11892zm4.53777,-45.01463l-32.35427,-18.69559l32.12738,-18.55946l32.39964,18.69559l-19.14937,11.02677l-13.02339,7.53269zm36.80128,26.36442l-32.12738,18.65021l0,-37.11892l4.12937,-2.40502l28.13414,-16.2452l-0.13613,37.11892zm115.48612,-21.19136l-106.27446,0l0,-23.77789a4.53777,4.53777 0 0 0 -2.26888,-3.94786l-0.86218,-0.36302l-40.83989,-23.50562a4.53777,4.53777 0 0 0 -4.53777,0l-41.11215,23.82327a4.53777,4.53777 0 0 0 -2.26888,3.90248l0,0l0,23.77789l-106.68286,0l0,-100.73839l38.52563,-22.23505a4.53777,4.53777 0 0 0 2.26888,-3.94786l0,-47.60116l0,0a4.53777,4.53777 0 0 0 -2.26888,-3.94786l-38.52563,-22.23505l0,-92.57041l106.5921,0l0,16.19982a4.53777,4.53777 0 0 0 2.26888,3.94786l40.83989,23.64176l0.4084,0.31764a4.53777,4.53777 0 0 0 2.26888,0.58991l0,0a4.53777,4.53777 0 0 0 2.26888,-0.58991l0.36302,-0.31764l40.83989,-23.64176a4.53777,4.53777 0 0 0 2.26888,-3.94786l0,-16.19982l106.86437,0l0,92.52503l-38.52563,22.23505a4.53777,4.53777 0 0 0 -2.26888,3.94786l0,0l0,47.64653a4.53777,4.53777 0 0 0 2.26888,3.94786l38.52563,22.23505l-0.13613,100.82914zm0.54453,-110.99373l-32.26351,-18.60484l0,-37.02816l32.26351,18.60484l0,37.02816zm4.53777,-44.96925l-32.39964,-18.69559l32.12738,-18.55946l32.8988,18.69559l-32.62653,18.55946zm37.1643,26.36442l-32.26351,18.60484l0,-37.11892l32.26351,-18.51408l0,37.02816z" id="svg_5"/>
   <path stroke="null" d="m483.253,336.17234l-17.44177,-60.41687c-0.53944,-2.15775 -2.51737,-3.59624 -4.67511,-3.59624l-19.2399,0l13.84553,-30.02862c0.53944,-1.25868 0.53944,-2.51737 0.17981,-3.77605c-0.35962,-1.25868 -1.4385,-2.15775 -2.51737,-2.69718l-44.5934,-20.67839c-2.51737,-1.07887 -5.39436,0 -6.47324,2.33756l-25.17369,54.66288l-38.29998,0c-2.15775,0 -4.13568,1.4385 -4.67511,3.59624l-17.44177,60.59668c-0.17981,0.35962 -0.17981,0.89906 -0.17981,1.4385l0,42.97509c0,2.69718 2.15775,4.85493 4.85493,4.85493l157.15578,0c2.69718,0 4.85493,-2.15775 4.85493,-4.85493l0,-42.97509c0,-0.53944 0,-0.89906 -0.17981,-1.4385zm-74.08259,-110.22482l35.6028,16.3629l-27.69106,60.05724l-13.48591,0l-24.45445,-11.32816l30.02862,-65.09198zm-66.53048,55.92156l30.02862,0l-4.31549,9.53004c-0.53944,1.25868 -0.53944,2.51737 -0.17981,3.77605c0.35962,1.25868 1.4385,2.15775 2.51737,2.69718l9.70985,4.4953l-24.81407,0c-2.69718,0 -4.85493,2.15775 -4.85493,4.85493c0,2.69718 2.15775,4.85493 4.85493,4.85493l88.82718,0c2.69718,0 4.85493,-2.15775 4.85493,-4.85493c0,-2.69718 -2.15775,-4.85493 -4.85493,-4.85493l-16.54271,0l9.53004,-20.49858l20.13896,0l14.56478,50.70701l-144.20931,0l14.74459,-50.70701zm-16.3629,93.86192l0,-33.26524l147.44593,0l0,33.26524l-147.44593,0z" id="svg_6"/>
  </g>
 </g>
</svg>
