<?xml version="1.0" encoding="iso-8859-1"?>
<!-- Generator: Adobe Illustrator 19.0.0, SVG Export Plug-In . SVG Version: 6.00 Build 0)  -->
<svg version="1.1" id="Layer_1" xmlns="http://www.w3.org/2000/svg" xmlns:xlink="http://www.w3.org/1999/xlink" x="0px" y="0px"
	 viewBox="0 0 511.999 511.999" style="enable-background:new 0 0 511.999 511.999;" xml:space="preserve">
<g>
	<g>
		<path d="M468.368,77.174h-25.324V58.909c0-15.867-12.909-28.776-28.776-28.776c-15.867,0-28.776,12.909-28.776,28.776v18.265
			h-47.96V58.909c0-15.867-12.909-28.776-28.776-28.776s-28.776,12.909-28.776,28.776v18.265h-47.96V58.909
			c0-15.867-12.909-28.776-28.776-28.776s-28.776,12.909-28.776,28.776v18.265h-47.96V58.909c0-15.867-12.909-28.776-28.776-28.776
			S68.955,43.042,68.955,58.909v18.265H43.631C19.572,77.174,0,96.748,0,120.807v308.936c0,28.741,23.382,52.123,52.123,52.123
			h29.484c4.769,0,8.633-3.865,8.633-8.633s-3.864-8.633-8.633-8.633H52.123c-19.22-0.001-34.857-15.638-34.857-34.858V219.813
			h388.781c4.769,0,8.633-3.865,8.633-8.633s-3.864-8.633-8.633-8.633H17.266v-81.742c0-14.538,11.827-26.366,26.365-26.366h25.324
			v19.94c0,15.867,12.909,28.776,28.776,28.776c15.867,0,28.776-12.909,28.776-28.776V94.44h47.96v19.94
			c0,15.867,12.909,28.776,28.776,28.776c15.867,0,28.776-12.909,28.776-28.776V94.44h47.96v19.94
			c0,15.867,12.909,28.776,28.776,28.776s28.776-12.909,28.776-28.776V94.44h47.96v19.94c0,15.867,12.909,28.776,28.776,28.776
			c15.867,0,28.776-12.909,28.776-28.776V94.44h25.324c14.538,0,26.365,11.828,26.365,26.366v81.742h-54.156
			c-4.769,0-8.633,3.865-8.633,8.633s3.864,8.633,8.633,8.633h54.156v209.929c0,19.22-15.637,34.857-34.857,34.857H116.139
			c-4.769,0-8.633,3.865-8.633,8.633s3.864,8.633,8.633,8.633h343.737c28.742,0,52.123-23.382,52.123-52.123V120.807
			C512,96.748,492.428,77.174,468.368,77.174z M109.242,85.807v28.573c0,6.347-5.164,11.511-11.511,11.511
			c-6.347,0-11.51-5.164-11.51-11.511V85.807V58.909c0-6.347,5.164-11.51,11.51-11.51c6.347,0,11.511,5.164,11.511,11.51V85.807z
			 M214.754,85.807v28.573c0,6.347-5.164,11.511-11.51,11.511c-6.347,0-11.51-5.164-11.51-11.511V85.807V58.909
			c0-6.347,5.164-11.51,11.51-11.51c6.347,0,11.51,5.164,11.51,11.51V85.807z M320.266,85.807v28.573
			c0,6.347-5.164,11.511-11.51,11.511c-6.347,0-11.51-5.164-11.51-11.511V85.807V58.909c0-6.347,5.164-11.51,11.51-11.51
			c6.347,0,11.51,5.164,11.51,11.51V85.807z M425.778,85.807v28.573c0,6.347-5.164,11.511-11.51,11.511
			c-6.347,0-11.511-5.164-11.511-11.511V85.807V58.909c0-6.347,5.164-11.51,11.511-11.51c6.347,0,11.51,5.164,11.51,11.51V85.807z"
			/>
	</g>
</g>
<g>
	<g>
		<path d="M133.354,328.401H77.588c-4.769,0-8.633,3.865-8.633,8.633s3.864,8.633,8.633,8.633h55.765
			c4.769,0,8.634-3.865,8.634-8.633S138.123,328.401,133.354,328.401z"/>
	</g>
</g>
<g>
	<g>
		<path d="M327.491,328.401h-55.766c-4.769,0-8.633,3.865-8.633,8.633s3.864,8.633,8.633,8.633h55.766
			c4.769,0,8.633-3.865,8.633-8.633S332.26,328.401,327.491,328.401z"/>
	</g>
</g>
<g>
	<g>
		<path d="M245.879,262.521c-4.121-2.398-9.408-1-11.803,3.122l-78.001,134.104c-2.396,4.122-0.999,9.405,3.123,11.803
			c1.366,0.794,2.859,1.172,4.333,1.172c2.973,0,5.868-1.538,7.47-4.293l78.001-134.104
			C251.399,270.202,250.001,264.918,245.879,262.521z"/>
	</g>
</g>
<g>
	<g>
		<path d="M440.016,262.521c-4.123-2.398-9.406-1-11.803,3.122l-78.001,134.104c-2.396,4.122-0.999,9.405,3.123,11.803
			c1.366,0.794,2.859,1.172,4.333,1.172c2.973,0,5.868-1.538,7.47-4.293l78.001-134.104
			C445.535,270.202,444.137,264.918,440.016,262.521z"/>
	</g>
</g>
<g>
</g>
<g>
</g>
<g>
</g>
<g>
</g>
<g>
</g>
<g>
</g>
<g>
</g>
<g>
</g>
<g>
</g>
<g>
</g>
<g>
</g>
<g>
</g>
<g>
</g>
<g>
</g>
<g>
</g>
</svg>
