<?xml version="1.0" encoding="iso-8859-1"?>
<!-- Generator: Adobe Illustrator 19.0.0, SVG Export Plug-In . SVG Version: 6.00 Build 0)  -->
<svg version="1.1" id="Layer_1" xmlns="http://www.w3.org/2000/svg" xmlns:xlink="http://www.w3.org/1999/xlink" x="0px" y="0px"
	 viewBox="0 0 512.001 512.001" style="enable-background:new 0 0 512.001 512.001;" xml:space="preserve">
<g>
	<g>
		<path d="M256.002,169.567c-30.768,0-55.801,25.032-55.801,55.8v46.854c0,4.942,4.004,8.946,8.946,8.946h93.709
			c4.942,0,8.946-4.004,8.946-8.946v-46.854C311.802,194.598,286.77,169.567,256.002,169.567z M293.909,263.274h-75.817v-37.908
			c0-20.902,17.006-37.908,37.908-37.908s37.909,17.006,37.909,37.908V263.274z"/>
	</g>
</g>
<g>
	<g>
		<path d="M511.592,181.75c-0.71-2.263-2.289-4.153-4.392-5.253l-76.438-39.975V69.302h8.779c4.942,0,8.946-4.004,8.946-8.946
			V10.642c0-4.942-4.004-8.946-8.946-8.946H331.81c-4.942,0-8.946,4.004-8.946,8.946v49.714c0,4.942,4.004,8.946,8.946,8.946h8.78
			v20.064l-80.443-42.071c-2.598-1.359-5.693-1.359-8.291,0l-127.153,66.497c-4.379,2.29-6.071,7.695-3.782,12.073
			c2.291,4.379,7.699,6.069,12.073,3.782l123.007-64.329l234.981,122.885l-19.347,36.994l-27.947-14.615l-43.113-22.546
			c-4.374-2.287-9.782-0.596-12.073,3.782c-2.289,4.379-0.596,9.783,3.782,12.073l38.312,20.036v268.484H311.799V324.357
			c0-4.942-4.004-8.946-8.946-8.946h-93.709c-4.942,0-8.946,4.004-8.946,8.946v51.302c0,4.942,4.004,8.946,8.946,8.946
			s8.946-4.004,8.946-8.946v-42.356h75.817v159.111h-75.817v-80.972c0-4.942-4.004-8.946-8.946-8.946s-8.946,4.004-8.946,8.946
			v80.972H81.405V223.93l174.596-91.309l102.657,53.687c3.749,1.962,8.243,0.994,10.897-2.07c0.058-0.068,0.123-0.13,0.18-0.199
			c0.03-0.036,0.055-0.076,0.083-0.113c0.155-0.197,0.308-0.398,0.448-0.611c0.166-0.253,0.322-0.515,0.465-0.79
			c2.289-4.379,0.596-9.783-3.782-12.073l-106.803-55.856c-2.598-1.359-5.693-1.359-8.291,0L40.367,225.199L21.02,188.205
			l79.011-41.32c4.379-2.29,6.071-7.695,3.782-12.073c-2.291-4.379-7.699-6.069-12.073-3.782l-86.94,45.468
			c-2.103,1.1-3.682,2.99-4.392,5.253c-0.71,2.264-0.489,4.717,0.611,6.82l27.639,52.849c1.597,3.055,4.71,4.802,7.933,4.802
			c1.398,0,2.815-0.328,4.139-1.02l22.782-11.915v268.072c0,4.942,4.004,8.946,8.946,8.946h367.084c4.942,0,8.946-4.004,8.946-8.946
			V233.286l22.782,11.915c1.323,0.692,2.741,1.02,4.139,1.02c3.223,0,6.337-1.749,7.933-4.802l27.639-52.849
			C512.081,186.467,512.302,184.014,511.592,181.75z M412.871,127.165l-54.389-28.443v-29.42h54.389V127.165z M430.596,51.411
			h-89.839V19.588h89.839V51.411z"/>
	</g>
</g>
<g>
</g>
<g>
</g>
<g>
</g>
<g>
</g>
<g>
</g>
<g>
</g>
<g>
</g>
<g>
</g>
<g>
</g>
<g>
</g>
<g>
</g>
<g>
</g>
<g>
</g>
<g>
</g>
<g>
</g>
</svg>
