<?xml version="1.0" standalone="no"?>
<!DOCTYPE svg PUBLIC "-//W3C//DTD SVG 20010904//EN"
 "http://www.w3.org/TR/2001/REC-SVG-20010904/DTD/svg10.dtd">
<svg version="1.0" xmlns="http://www.w3.org/2000/svg"
 width="800.000000pt" height="600.000000pt" viewBox="0 0 800.000000 600.000000"
 preserveAspectRatio="xMidYMid meet">

<g transform="translate(0.000000,600.000000) scale(0.100000,-0.100000)"
fill="#333" stroke="none">
<path d="M3780 4909 c-113 -66 -213 -127 -222 -136 -15 -14 -18 -34 -18 -135
l0 -118 -580 0 -580 0 0 -507 -1 -508 -200 -115 c-111 -63 -205 -122 -210
-132 -15 -28 -11 -491 4 -512 7 -10 101 -69 208 -131 l194 -113 5 -548 5 -549
578 -3 577 -2 0 -78 c0 -42 4 -82 8 -88 9 -14 436 -264 451 -264 17 0 425 241
444 262 13 15 17 38 17 94 l0 74 578 2 577 3 5 549 5 548 194 113 c107 62 201
121 208 131 15 21 19 467 4 506 -6 16 -70 58 -209 138 l-201 115 -1 508 0 507
-580 0 -580 0 0 118 c0 64 -4 122 -8 129 -9 15 -440 263 -455 262 -7 0 -104
-54 -217 -120z m382 -70 c87 -51 155 -95 151 -99 -4 -4 -76 -46 -159 -93
l-151 -87 -157 89 c-87 49 -156 93 -155 97 2 8 297 184 308 184 2 0 76 -41
163 -91z m-379 -261 c78 -45 150 -88 160 -96 15 -13 17 -36 17 -194 0 -98 -2
-178 -5 -178 -3 0 -77 41 -165 91 l-160 92 0 183 c0 101 2 184 6 184 3 0 69
-37 147 -82z m587 -101 l0 -183 -160 -91 -160 -92 0 184 0 183 153 91 c83 50
155 91 160 91 4 0 7 -82 7 -183z m-830 -134 c0 -49 4 -93 8 -99 8 -13 440
-264 454 -264 6 0 22 8 36 18 15 10 111 67 215 126 103 59 192 116 197 126 6
10 10 55 10 99 l0 81 530 0 530 0 0 -464 0 -464 -197 -114 -198 -114 0 -269 0
-269 198 -114 197 -114 0 -504 0 -504 -530 0 -530 0 0 123 c0 67 -4 127 -8
134 -4 6 -106 68 -226 138 -156 89 -225 123 -239 119 -26 -8 -407 -231 -429
-251 -15 -14 -18 -35 -18 -140 l0 -123 -530 0 -530 0 0 504 0 504 198 114 197
114 0 269 0 269 -197 114 -198 114 0 464 0 464 530 0 530 0 0 -87z m-937
-1018 c111 -62 136 -80 125 -90 -17 -16 -294 -175 -304 -175 -12 0 -314 173
-314 180 0 3 71 46 158 97 138 80 159 90 177 79 11 -7 82 -48 158 -91z m3287
-85 c0 -7 -303 -180 -315 -180 -16 0 -314 175 -312 183 1 5 72 48 156 96 l153
88 159 -90 c88 -50 159 -94 159 -97z m-3667 -175 l157 -90 0 -182 c0 -101 -2
-183 -6 -183 -8 0 -287 162 -306 178 -16 13 -18 36 -18 194 0 99 4 178 9 176
4 -1 78 -43 164 -93z m563 -271 c-3 -8 -271 -167 -308 -182 -4 -2 -8 79 -8
181 l0 185 158 90 157 91 3 -177 c1 -97 1 -181 -2 -188z m2632 246 l112 -65 0
-184 c0 -142 -3 -182 -12 -178 -7 3 -78 43 -158 90 l-145 85 -3 186 -2 187 48
-28 c26 -15 98 -57 160 -93z m532 -63 l0 -183 -159 -92 c-88 -51 -162 -92
-165 -92 -3 0 -6 82 -6 183 l0 183 158 91 c86 50 160 92 165 92 4 1 7 -81 7
-182z m-1787 -1152 c86 -49 153 -93 149 -96 -4 -4 -75 -46 -159 -94 l-152 -87
-161 92 c-88 51 -158 95 -156 97 11 12 312 182 317 180 3 -1 76 -42 162 -92z
m-363 -268 l145 -84 6 -184 c3 -101 5 -185 4 -187 -1 -1 -75 39 -164 90 l-161
93 0 184 c0 142 3 182 13 178 6 -3 77 -43 157 -90z m570 -89 l0 -183 -112 -65
c-62 -36 -134 -78 -160 -93 l-48 -28 2 187 3 187 150 88 c83 48 153 88 158 88
4 1 7 -81 7 -181z"/>
<path d="M4023 3823 c-8 -16 -68 -143 -132 -283 l-118 -255 -207 -5 c-159 -4
-209 -8 -215 -19 -5 -7 -50 -156 -100 -331 l-91 -318 0 -211 c0 -212 0 -212
25 -236 l24 -25 791 0 791 0 24 25 c25 24 25 24 25 235 l0 211 -91 317 c-50
174 -98 325 -106 334 -12 14 -36 18 -118 20 l-103 3 70 150 c39 86 68 160 66
174 -3 21 -33 38 -237 133 -128 59 -244 108 -258 108 -16 0 -29 -9 -40 -27z
m291 -184 c65 -30 120 -59 123 -65 2 -6 -56 -141 -130 -300 l-133 -289 -84 1
c-81 0 -90 3 -192 52 l-106 52 140 302 c77 167 144 313 149 325 l8 23 53 -24
c29 -13 106 -47 172 -77z m-594 -465 c0 -3 -9 -27 -21 -54 -11 -27 -19 -57
-17 -67 2 -10 26 -30 53 -45 l50 -28 -115 0 c-126 0 -160 -11 -160 -54 0 -46
-3 -46 490 -46 493 0 490 0 490 46 0 39 -36 54 -127 54 l-82 0 46 100 46 100
102 0 101 0 69 -242 c37 -134 70 -249 73 -255 3 -10 -145 -13 -718 -13 -573 0
-721 3 -718 13 2 6 36 121 74 254 l69 243 148 0 c81 0 147 -3 147 -6z m1020
-769 l0 -165 -740 0 -740 0 0 165 0 165 740 0 740 0 0 -165z"/>
</g>
</svg>
