<?xml version="1.0" encoding="utf-8"?>
<!-- Svg Vector Icons : http://www.onlinewebfonts.com/icon -->
<!DOCTYPE svg PUBLIC "-//W3C//DTD SVG 1.1//EN" "http://www.w3.org/Graphics/SVG/1.1/DTD/svg11.dtd">
<svg version="1.1" xmlns="http://www.w3.org/2000/svg" xmlns:xlink="http://www.w3.org/1999/xlink" x="0px" y="0px" viewBox="0 0 1000 1000" enable-background="new 0 0 1000 1000" xml:space="preserve">
<metadata> Svg Vector Icons : http://www.onlinewebfonts.com/icon </metadata>
<g><path d="M500,10C229.3,10,10,229.3,10,500c0,270.7,219.3,490,490,490c270.7,0,490-219.3,490-490C990,229.3,770.7,10,500,10z M500,963C245.2,963,37,754.8,37,500C37,245.2,245.2,37,500,37c254.8,0,463,207,463,463C963,756,754.8,963,500,963z"/><path d="M500,545.3c-3.7,0-7.3,1.2-11,4.9c-2.5,2.4-4.9,7.3-4.9,11s1.2,7.3,4.9,11c6.1,6.1,15.9,6.1,20.8,0c2.5-2.4,4.9-7.3,4.9-11s-1.2-7.3-4.9-11C507.3,546.5,503.7,545.3,500,545.3z"/><path d="M715.6,226.8H284.4c-39.2,0-69.8,31.8-69.8,69.8v286.6c0,39.2,31.9,69.8,69.8,69.8h220.5l115.2,115.2c4.9,4.9,13.5,4.9,18.4,0c2.5-2.5,3.7-6.1,3.7-8.6c0-3.7-1.2-6.1-3.7-8.6L522,634.8c-2.4-2.5-4.9-3.7-7.3-3.7h-1.2H294.2c-35.5,0-55.1-20.8-55.1-55.1V306.4c0-36.8,20.8-55.1,63.7-55.1H707c39.2,0,55.1,17.1,55.1,55.1V576c0,40.4-17.2,55.1-63.7,55.1h-15.9c-6.1,0-11,4.9-11,11c0,6.1,4.9,11,11,11h33.1c39.2,0,69.8-31.9,69.8-69.8V296.6C785.4,258.7,754.8,226.8,715.6,226.8z"/><path d="M545.3,438.8L545.3,438.8c18.4-15.9,29.4-28.2,34.3-38c4.9-9.8,7.3-19.6,7.3-30.6c0-20.8-7.3-38-23.3-51.4c-15.9-13.5-36.7-20.8-61.3-20.8c-24.5,0-44.1,6.1-58.8,19.6c-14.7,12.3-23.3,30.6-26.9,52.7v6.1c0,7.4,6.1,13.5,13.5,13.5c6.1,0,12.3-4.9,12.3-12.3v-4.9h1.2c7.4-36.8,27-56.4,60-56.4c15.9,0,30.6,6.1,41.7,15.9c11,11,17.2,24.5,17.2,39.2c0,7.3-1.2,14.7-4.9,20.8c-3.7,7.3-11,15.9-24.5,26.9c-9.8,8.6-17.1,15.9-22,20.8c-4.9,4.9-9.8,11-12.3,17.1c-3.7,6.1-4.9,12.3-6.1,18.4v1.2c-4.9,8.6-4.9,11-4.9,20.8l0,0v4.9v1.2c0,6.1,4.9,11,12.3,11s12.3-4.9,12.3-12.3c0,0,0,0,0-1.2c0-19.6,2.5-25.7,6.1-33.1C522,462,530.6,451,545.3,438.8z"/></g>
</svg>